<?xml version="1.0" encoding="UTF-8"?>
<svg width="39px" height="37px" viewBox="0 0 39 37" version="1.1" xmlns="http://www.w3.org/2000/svg" xmlns:xlink="http://www.w3.org/1999/xlink">
    <!-- Generator: Sketch 64 (93537) - https://sketch.com -->
    <title>calendar copy</title>
    <desc>Created with Sketch.</desc>
    <g id="Page-1" stroke="none" stroke-width="1" fill="none" fill-rule="evenodd">
        <g id="calendar-copy" fill="#FFFFFF" fill-rule="nonzero">
            <path d="M34.8214315,3.96428295 L30.642863,3.96428295 L30.642863,1.32145346 C30.642863,0.591622774 30.0192606,0 29.2499796,0 C28.4806986,0 27.8570962,0.591622774 27.8570962,1.32145346 L27.8570962,3.96428295 L11.1428222,3.96428295 L11.1428222,1.32145346 C11.1428222,0.591622774 10.5192198,0 9.7500204,0 C8.98082102,0 8.35713703,0.591622774 8.35713703,1.32145346 L8.35713703,3.96428295 L4.17856851,3.96428295 C1.87080715,3.96428295 0,5.73915127 0,7.9285659 L0,33.0357171 C0,35.2251317 1.87080715,37 4.17856851,37 L34.8214315,37 C37.1291929,37 39,35.2251317 39,33.0357171 L39,7.9285659 C39,5.73915127 37.1291929,3.96428295 34.8214315,3.96428295 Z M36.2142332,33.0357171 C36.2142332,33.7655477 35.5906309,34.3571705 34.8213499,34.3571705 L4.17856851,34.3571705 C3.40928752,34.3571705 2.78568514,33.7655477 2.78568514,33.0357171 L2.78568514,15.8571318 L36.2142332,15.8571318 L36.2142332,33.0357171 Z M36.2143965,13.2143023 L2.78568514,13.2143023 L2.78568514,7.9285659 C2.78568514,7.19873521 3.40928752,6.60711244 4.17856851,6.60711244 L8.35713703,6.60711244 L8.35713703,9.24994193 C8.35713703,9.97977261 8.98073941,10.5713954 9.7500204,10.5713954 C10.5193014,10.5713954 11.1429038,9.97977261 11.1429038,9.24994193 L11.1429038,6.60711244 L27.8571778,6.60711244 L27.8571778,9.24994193 C27.8571778,9.97977261 28.4807802,10.5713954 29.2500612,10.5713954 C30.0193422,10.5713954 30.6429446,9.97977261 30.6429446,9.24994193 L30.6429446,6.60711244 L34.8215131,6.60711244 C35.5907941,6.60711244 36.2143965,7.19873521 36.2143965,7.9285659 L36.2143965,13.2143023 L36.2143965,13.2143023 Z" id="Shape"></path>
            <path d="M28.5631516,18.365398 C28.0085504,17.8782007 27.1293557,17.8782007 26.5748383,18.365398 L16.1378704,27.8581951 L11.4252693,23.5718807 C10.8567486,23.0724806 9.95080486,23.0868189 9.4017379,23.6038368 C8.86608737,24.1082706 8.86608737,24.9079362 9.4017379,25.41237 L15.1261047,30.618929 C15.6849824,31.1270237 16.5908423,31.1270237 17.1496361,30.618929 L28.5982859,20.2058873 C29.1473528,19.6887931 29.1315885,18.8647981 28.5631516,18.365398 Z" id="Path"></path>
        </g>
    </g>
</svg>