<?xml version="1.0" encoding="UTF-8"?>
<svg width="51px" height="40px" viewBox="0 0 51 40" version="1.1" xmlns="http://www.w3.org/2000/svg" xmlns:xlink="http://www.w3.org/1999/xlink">
    <!-- Generator: Sketch 64 (93537) - https://sketch.com -->
    <title>group copy</title>
    <desc>Created with Sketch.</desc>
    <defs>
        <filter x="-31.4%" y="-42.2%" width="162.8%" height="184.4%" filterUnits="objectBoundingBox" id="filter-1">
            <feOffset dx="1" dy="3" in="SourceAlpha" result="shadowOffsetOuter1"></feOffset>
            <feGaussianBlur stdDeviation="2" in="shadowOffsetOuter1" result="shadowBlurOuter1"></feGaussianBlur>
            <feColorMatrix values="0 0 0 0 0   0 0 0 0 0   0 0 0 0 0  0 0 0 0.5 0" type="matrix" in="shadowBlurOuter1" result="shadowMatrixOuter1"></feColorMatrix>
            <feMerge>
                <feMergeNode in="shadowMatrixOuter1"></feMergeNode>
                <feMergeNode in="SourceGraphic"></feMergeNode>
            </feMerge>
        </filter>
    </defs>
    <g id="Page-1" stroke="none" stroke-width="1" fill="none" fill-rule="evenodd">
        <g id="group-copy" filter="url(#filter-1)" transform="translate(3.000000, 1.000000)" fill="#FFFFFF" fill-rule="nonzero">
            <path d="M36.7011719,16.9024519 L32.492043,16.9024519 C31.9191855,16.9024519 31.3645527,16.972765 30.8367109,17.1020747 C29.7954727,15.2633723 27.6696602,14 25.2200879,14 L17.7799121,14 C15.3303398,14 13.2045273,15.2633723 12.1632891,17.1020747 C11.6354473,16.972765 11.0808145,16.9024519 10.507957,16.9024519 L6.29882812,16.9024519 C2.8256543,16.9024519 0,19.4407393 0,22.5606941 L0,28.6050547 C0,30.4770275 1.69539258,32 3.77929688,32 L39.2207031,32 C41.3046074,32 43,30.4770275 43,28.6050547 L43,22.5606941 C43,19.4407393 40.1743457,16.9024519 36.7011719,16.9024519 Z M11.481084,19.6583931 L11.481084,29.7367786 L3.77929688,29.7367786 C3.08466211,29.7367786 2.51953125,29.2291211 2.51953125,28.6051301 L2.51953125,22.5607695 C2.51953125,20.6887967 4.21492383,19.1658242 6.29882812,19.1658242 L10.507957,19.1658242 C10.8499414,19.1658242 11.1810918,19.2075443 11.4963691,19.284421 C11.4872988,19.4082233 11.481084,19.5327046 11.481084,19.6583931 Z M28.9993848,29.7367786 L14.0006152,29.7367786 L14.0006152,19.6583176 C14.0006152,17.7863448 15.6960078,16.2633723 17.7799121,16.2633723 L25.2200879,16.2633723 C27.3039922,16.2633723 28.9993848,17.7863448 28.9993848,19.6583176 L28.9993848,29.7367786 Z M40.4804688,28.6051301 C40.4804688,29.2291211 39.9153379,29.7367786 39.2207031,29.7367786 L31.518916,29.7367786 L31.518916,19.6583176 C31.518916,19.5325538 31.5127012,19.4080724 31.5036309,19.2843455 C31.8189082,19.2075443 32.1500586,19.1657488 32.492043,19.1657488 L36.7011719,19.1657488 C38.7850762,19.1657488 40.4804688,20.6887212 40.4804688,22.5606941 L40.4804688,28.6051301 Z" id="Shape"></path>
            <path d="M7.5,7 C4.46726735,7 2,9.24297032 2,12 C2,14.7570297 4.46726735,17 7.5,17 C10.5326501,17 13,14.7570297 13,12 C13,9.24297032 10.5327326,7 7.5,7 Z M7.49991747,14.7493023 C5.83232302,14.7493023 4.47568496,13.515995 4.47568496,12 C4.47568496,10.484005 5.83232302,9.25069772 7.49991747,9.25069772 C9.16751193,9.25069772 10.52415,10.484005 10.52415,12 C10.52415,13.515995 9.16751193,14.7493023 7.49991747,14.7493023 Z" id="Shape"></path>
            <path d="M21.5,0 C17.3644624,0 14,3.14016487 14,7 C14,10.8598351 17.3644624,14 21.5,14 C25.6355376,14 29,10.8598351 29,7 C29,3.14024349 25.6355376,0 21.5,0 Z M21.5,11.6414565 C18.7578562,11.6414565 16.5270109,9.55933422 16.5270109,7 C16.5270109,4.4407444 18.7578562,2.35854354 21.5,2.35854354 C24.2421438,2.35854354 26.4729891,4.44066578 26.4729891,7 C26.4729891,9.55933422 24.2421438,11.6414565 21.5,11.6414565 Z" id="Shape"></path>
            <path d="M35.5,7 C32.4673499,7 30,9.24297032 30,12 C30,14.7570297 32.4673499,17 35.5,17 C38.5327326,17 41,14.7570297 41,12 C41,9.24297032 38.5327326,7 35.5,7 Z M35.5,14.7493023 C33.8324881,14.7493023 32.4757675,13.515995 32.4757675,12 C32.47585,10.484005 33.8324881,9.25069772 35.5,9.25069772 C37.1675945,9.25069772 38.5242325,10.484005 38.5242325,12 C38.5242325,13.515995 37.1675945,14.7493023 35.5,14.7493023 Z" id="Shape"></path>
        </g>
    </g>
</svg>