<svg version="1.1" xmlns="http://www.w3.org/2000/svg" xmlns:xlink="http://www.w3.org/1999/xlink" width="420" height="335" viewBox="0,0,420,335"><g fill="none" fill-rule="nonzero" stroke="none" stroke-width="1" stroke-linecap="butt" stroke-linejoin="miter" stroke-miterlimit="10" stroke-dasharray="" stroke-dashoffset="0" font-family="none" font-weight="none" font-size="none" text-anchor="none" style="mix-blend-mode: normal"><g fill="none" font-family="sans-serif" font-weight="normal" font-size="12" text-anchor="start"/><path d="M-15,159.63214c13.66665,-7.72668 27.33331,-15.45336 41,2.90202c13.66669,18.35537 27.33342,62.7928 41,55.36796c13.66658,-7.42484 27.333,-66.71194 41,-69.61325c13.667,-2.90132 27.33459,50.58315 41,44.06226c13.66541,-6.52089 27.32865,-73.04715 41,-68.85219c13.67135,4.19496 27.3508,79.11113 41,77.4906c13.6492,-1.62053 27.26816,-79.77775 41,-80.61485c13.73184,-0.8371 27.57655,75.64594 41,84.05344c13.42345,8.40751 26.42562,-51.26051 41,-62.5111c14.57438,-11.25059 30.72097,25.91624 41,23.81087c10.27903,-2.10537 14.69051,-43.48296 40,-6.09575v200h-450" id="Wave path" fill="#3384f5"/></g></svg>