<?xml version="1.0" encoding="UTF-8"?>
<svg width="41px" height="35px" viewBox="0 0 41 35" version="1.1" xmlns="http://www.w3.org/2000/svg" xmlns:xlink="http://www.w3.org/1999/xlink">
    <!-- Generator: Sketch 64 (93537) - https://sketch.com -->
    <title>video copy</title>
    <desc>Created with Sketch.</desc>
    <g id="Page-1" stroke="none" stroke-width="1" fill="none" fill-rule="evenodd">
        <g id="video-copy" fill="#FFFFFF" fill-rule="nonzero">
            <path d="M27,26 L38,18.5 L27,11 L27,26 Z M29.4765478,15.7560809 L33.5009381,18.5 L29.4765478,21.2439191 L29.4765478,15.7560809 Z" id="Shape"></path>
            <path d="M20.7287832,4.85779482 C20.3428867,4.66621563 14.7583184,0 6.00585938,0 L4.8046875,0 L4.8046875,4.19040289 C2.25660156,4.58139935 0.552619141,5.09037955 0,5.22164677 L0,35 C0.840099609,34.8830063 9.2795332,31.800578 20.2086758,34.6155215 L20.5,34.6906021 L20.7913242,34.6155215 C31.732959,31.7971953 40.1561367,34.8824288 41,35 L41,5.22164677 C40.443457,5.14541113 31.7426484,2.17981146 20.7287832,4.85779482 Z M2.40234375,31.8606425 L2.40234375,7.16648083 C3.19687891,6.98306975 3.99966211,6.82540057 4.8046875,6.69396833 L4.8046875,29.7022001 L6.00585938,29.7022001 C8.59550586,29.7022001 11.1902773,30.1704223 13.6298574,31.0551353 C9.875875,30.7940035 6.08938086,31.0620658 2.40234375,31.8606425 Z M19.2988281,31.118995 C15.7028398,28.8202923 11.4749551,27.4715649 7.20703125,27.257214 L7.20703125,2.50851581 C14.438166,2.90924799 18.9291074,6.66080088 19.2988281,6.85031741 L19.2988281,31.118995 Z M38.5976562,31.8606425 C33.0406348,30.6570433 27.2580332,30.6570433 21.7011719,31.8606425 L21.7011719,7.16648083 C27.2482637,5.88565596 33.0504844,5.88565596 38.5976562,7.16648083 L38.5976562,31.8606425 Z" id="Shape"></path>
        </g>
    </g>
</svg>