<?xml version="1.0" encoding="utf-8"?>
<!-- Generator: Adobe Illustrator 19.2.1, SVG Export Plug-In . SVG Version: 6.00 Build 0)  -->
<svg version="1.1" xmlns="http://www.w3.org/2000/svg" xmlns:xlink="http://www.w3.org/1999/xlink" x="0px" y="0px"
	 viewBox="0 0 1000 500" style="enable-background:new 0 0 1000 500;" xml:space="preserve">
<style type="text/css">
	.st0{fill:#F8E2DA;}
	.st1{fill:url(#SVGID_1_);}
	.st2{fill:#756484;}
	.st3{fill:url(#SVGID_2_);}
	.st4{fill:url(#SVGID_3_);}
	.st5{fill:url(#SVGID_4_);}
	.st6{fill:url(#SVGID_5_);}
	.st7{fill:url(#SVGID_6_);}
	.st8{fill:url(#SVGID_7_);}
</style>
<g id="Слой_9">
	<path class="st0" d="M105.1,190.1c-2.5-3.7-7.3-11.7-13.9-11.7c-5.8,0-11.8,6.2-11.2,10.5c0.4,2.8,3.3,3,9.1,9.3
		c3.2,3.6,5.7,6.4,5,9.3c-0.7,2.8-4,4.3-4.7,4.5c-5,2.1-7.8-1.5-12.6,0c-5.7,1.7-8,8.5-8.2,9.2c-1.3,4-1.4,10.3,2.2,13.5
		c4.2,3.8,9.3-0.2,20.8,3.4c5.9,1.9,7.3,3.9,7.9,5.1c1.5,3.1,0.6,7.6-2,10.1c-3,2.9-5.9,0.9-9.7,3.8c-0.2,0.2-5,4-4.1,9.2
		c0.7,3.8,4.2,6.8,7.6,7.4c4.4,0.7,6.2-2.9,12.9-5.7c6.7-2.8,16.9-4.2,20.1-0.1c2.6,3.2,0.9,9.7-1.9,14.1
		c-8.7,13.2-27.4,4.6-54,16.1c-8.8,3.8-23.1,10-29.3,24.7c-7.1,16.7,1.2,32.7,1.7,33.6c7.6,14,23.3,22.1,37.4,20.7
		c18.2-1.8,29.9-18.9,31.7-21.5c5.6-8.1,6.3-14.4,15-21.5c3.9-3.2,9.7-7.7,15.8-5.9c4.7,1.4,9.2,6.5,8.3,10.4
		c-1.2,5.4-11.8,3.8-16.6,12.1c-1.8,3.1-3,8-0.9,10.8c3.6,4.7,14.8,1.1,16.6,0.6c14.2-4.5,22-17.1,24.9-21.9
		c10.3-17.2,10.2-34.5,10-43.5c-0.2-8.6-0.8-43-24.6-67.8C138.5,208.4,120.4,213,105.1,190.1z"/>
	<path class="st0" d="M111.4,161c-2.9-0.7-5.8,2.4-6.8,5.1c-1.5,4.1,0.5,9.6,3.4,10.3c3.1,0.7,7.4-4,7.4-8.5
		C115.4,165.3,114.1,161.6,111.4,161z"/>
	<path class="st0" d="M89.7,151.9c-1.7-0.3-4.8,2.4-4,5.1c0.8,2.5,4.4,3.3,5.7,2.3C93.3,157.9,91.9,152.3,89.7,151.9z"/>
	<path class="st0" d="M74.9,284.1c1.1-3.3-4.5-8.8-10.3-10.8c-4.2-1.5-11.7-2.2-14.8,2.3c-1.5,2.2-2,5.6-0.6,8
		c1.7,2.8,5.5,3.1,10.3,3.4C63.9,287.2,73.6,287.8,74.9,284.1z"/>
	<path class="st0" d="M69.2,252.1c-2.1-2.3-6.1-2.2-8,0c-2.2,2.6-0.9,7.3,2.3,8.5c2.1,0.8,4.9,0,6.3-2.3
		C71,256.4,70.7,253.8,69.2,252.1z"/>
	<path class="st0" d="M702.7,245.3c-3-12.3-1.7-24.5-1.7-24.5c1.8-16.7,8.1-17.8,9.7-33.6c1.3-12.5-2.2-16.7,0.6-33
		c1.3-7.4,3-12.6,7.4-14.8c4.6-2.3,9.8-0.2,10.3,0c5.4,2.4,7.1,7.6,7.4,8.5c1,3.1,0.6,6.1,0.2,9.7c-0.5,4.3-1.5,5.6-0.8,8.4
		c0.2,0.6,1.1,4.5,3.8,5.3c3,0.9,7.1-2.3,8.7-5.7c2.5-5.1-1.1-9-3-18.2c-0.3-1.5-3-15,2.3-28.9c1.7-4.6,3.9-10.2,9.5-14.8
		c6.9-5.6,18.5-9.1,28.1-4.2c0.8,0.4,10.3,5.5,11,14.4c0.4,5.1-2.4,9-6.1,14.1c-7.2,9.7-11.7,9.5-20.5,19.7
		c-7.7,9-8.6,14.3-8.7,16.7c-0.1,1.7-0.6,8.8,3.8,11.8c3.2,2.1,7.3,1,9.5,0.4c7.3-2.1,11.3-8.3,12.5-10.3c2.5-4,1.4-4.7,4.6-10.6
		c3-5.6,4.9-9.3,8.7-10.3c3.9-1,9.1,0.9,10.3,4.2c1.7,4.9-6.5,11.5-6.8,11.8c-4,3.1-6.9,3.1-9.9,7.2c-1.7,2.4-2.2,4.4-2.3,4.9
		c-0.6,3,0,5.7,1.1,8.7c2.6,6.7,5.6,14.2,12.2,17.1c10.4,4.5,25-4.6,31.1-15.2c3.7-6.3,1.7-8.6,4.6-23.9c3.2-17.3,5-27.1,12.9-33.8
		c6.7-5.7,18.7-10,28.5-4.6c6.3,3.5,11.9,11.3,11,18.2c-0.4,3-1.6,3.2-6.8,16c-1.1,2.7-2.3,5.7-1.1,8.7c0.6,1.7,2.3,4.2,4.2,4.2
		c2.5,0,2.7-4.4,7.2-8.4c0.8-0.7,5.9-5.1,10.3-3.4c1.8,0.7,3.6,2.5,3.8,4.6c0.2,1.6-0.5,3.3-4.2,6.8c-5.4,5.2-7.4,5-10.6,8.4
		c-1.5,1.6-6.2,6.4-5.7,12.9c0.4,5,3.8,9.9,8.4,11.8c8.2,3.4,17.9-4.1,22.4-9.5c6-7.1,3.2-10.8,8.7-19c0.9-1.4,12.1-17.3,26.6-14.8
		c8,1.4,14.1,8,16.7,14.4c4.2,10.5-0.9,20.2-3,24.3c-5.7,10.9-15.4,15.7-20.5,18.2c-10.9,5.4-21.6,6.3-24.7,6.5
		c-11.4,0.7-16.8-2.1-23.5,2.3c-0.9,0.6-7,4.5-6.5,9.5c0.4,4.2,5.2,6.6,5.7,6.8c5.6,2.7,12,0.1,17.1-1.9c6.4-2.6,6.8-4.4,14.1-6.8
		c5.7-1.9,8.4-1.8,10.6-1.1c0.7,0.2,5.9,1.8,6.5,5.7c0.6,4.2-4.6,7.4-4.9,7.6c-2.9,1.7-4.9,1.1-10.6,1.5c-2.7,0.2-8.5,0.6-14.4,2.7
		c-4.6,1.6-9.1,3.2-11.4,7.6c-0.3,0.6-2.5,4.8-0.8,8.4c2.6,5.4,13.2,6.4,20.9,3.8c7.2-2.4,6.6-6.2,15.6-10.6c4.2-2.1,12.1-6,19.7-3
		c0.6,0.2,8.6,3.5,9.1,9.9c0.3,4.6-3.4,8-4.2,8.7c-3.4,3.2-6.7,3-14.1,4.6c-10.5,2.2-15.8,3.3-19.4,6.8c-4.7,4.6-2.1,8-7.6,14.4
		c-4.9,5.9-11.3,8.2-12.9,8.7c-7,2.4-9.1-0.1-17.1,2.7c-4.2,1.4-9.1,3.1-10.3,7.2c-1,3.5,1.2,7.4,3.8,9.5c4.7,3.7,11.6,2.1,15.6,0
		c4.3-2.3,3.8-4.6,8.4-6.8c1.3-0.6,7.7-3.7,12.2-0.4c2.6,1.9,4.1,5.8,3,8.7c-0.6,1.8-2,2.6-5.7,4.9c-10.3,6.4-9.5,6.1-10.3,6.5
		c-6,2.6-11.5,2.7-16,2.7c-8.7,0-9.5-2.2-15.2-1.1c-1.3,0.2-11.3,2.2-13.3,8.4c-1.7,5.5,4.7,8.4,4.2,17.1c-0.1,1.5-0.4,7.6-4.9,10.6
		c-4.5,3-11.1,1.6-14.8-1.5c-3.7-3-4-7.1-5.3-11.4c0,0-2.1-7.1-15.6-22C809.7,317.5,713.3,288.8,702.7,245.3z"/>
	<path class="st0" d="M823.9,100.6c-2.4-1.4-7,0.6-9.1,3.8c-0.3,0.4-2.9,4.6-0.8,8c1.8,2.8,5.8,3.5,8.4,2.3
		C827.2,112.4,827.3,102.7,823.9,100.6z"/>
	<path class="st0" d="M822.7,123.8c-1.5-1.4-4.2-1.9-5.7-0.4c-1.3,1.3-1.1,3.6,0,4.9c1.7,2.1,5.8,1.6,6.8-0.4
		C824.5,126.6,823.8,124.8,822.7,123.8z"/>
	<path class="st0" d="M713.7,132.9c3-2,2.6-7.2,1.9-9.9c-1.1-4.5-5.2-10.2-9.9-9.5c-3,0.4-5.3,3.3-6.1,6.1c-1.2,4.3,1.5,7.7,2.3,8.7
		C704.7,131.9,710.4,135.1,713.7,132.9z"/>
	<path class="st0" d="M703.5,141.6c0.1-1.4-2.9-3.9-5.3-2.7c-2,1-2.4,3.9-1.5,4.9C698,145.4,703.4,143.5,703.5,141.6z"/>
	<path class="st0" d="M943.5,289.4c0.9-3.3,7.5-4,11-3.8c2.7,0.1,7.7,0.4,9.5,4.2c1.3,2.7,0.6,6.3-1.5,8.4c-3.5,3.3-9.2,0.8-11,0
		C947.8,296.5,942.7,292.6,943.5,289.4z"/>
	<path class="st0" d="M937.4,297.3c-0.9-0.9-4.2-0.3-5.3,2.3c-1.1,2.5,0.7,5.2,1.9,5.3C936,305.1,938.8,298.7,937.4,297.3z"/>
	<path class="st0" d="M382.9,307.2c-10,3.2-31.6,8.5-56.2,0.8c-11-3.5-31.3-9.9-40.3-28.9c-8-16.8-2.9-34.6-1.5-39.5
		c4.5-15.7,10.7-14.1,14.4-29.6c5.1-21.4,0-39.5,0-39.5c-0.8-2.9-3-9.9-2.3-19c0.8-9,3.7-11.5,4.6-12.2c3.5-2.7,9.2-3.4,12.9-0.8
		c4.2,3,3.9,9.1,3.8,12.9c-0.2,5.5-2,6.1-3,12.9c-0.9,5.7-1.8,11.7,1.5,15.2c2.9,3.1,8.2,3.8,12.2,2.3c4.5-1.8,6.7-6.5,9.1-14.4
		c4.3-14.4,3.9-22.4,5.3-30.4c0.8-4.2,5.4-27,23.5-37.2c12.6-7.1,33.5-9.1,44.8,3c0.9,0.9,9,9.3,7.6,19.7
		c-1.8,14.1-19.4,22-22.8,23.5c-10.1,4.6-14.8,2.5-20.5,8.4c-3.9,4-8.7,12.2-5.3,18.2c3.2,5.7,12.5,7.5,18.2,4.6
		c6.9-3.5,4.6-11.8,12.9-17.5c3.8-2.6,10.3-5,14.4-2.3c5,3.3,4,12.4,3.8,14.4c-1.9,16.7-18.6,27.1-25.1,32.7
		C381.5,216.3,370.6,242.6,382.9,307.2z"/>
	<path class="st0" d="M458.9,157.6c-3.5-2.7-11.5,2.3-15.2,5.3c-1,0.8-11,9-8.4,15.2c2,4.6,10.3,6.2,16,3.8
		C461.2,177.7,463.4,161,458.9,157.6z"/>
	<path class="st0" d="M451.3,131.8c-3.1-0.9-6.1,1.1-7.6,3c-2.5,3.2-2.6,8.5,0,10.6c3.3,2.7,10.7,0.4,12.2-4.6
		C456.8,137.5,455,132.8,451.3,131.8z"/>
</g>
<g id="Слой_2">
	<g>
		<linearGradient id="SVGID_1_" gradientUnits="userSpaceOnUse" x1="219.7215" y1="357.4406" x2="219.7215" y2="187.774">
			<stop  offset="0" style="stop-color:#AE91B5"/>
			<stop  offset="0.9032" style="stop-color:#E7B8D4"/>
		</linearGradient>
		<path class="st1" d="M196.3,195.4c-5.1-4.8-11-5.8-17.1-6.8c-4.6-0.8-13.7-2.1-24.6,1.7c-10.2,3.6-16.3,10.1-17.5,11.5
			c-7.3,8-9.4,16.7-10.8,23.3c-1.2,5.4-2.6,14.7-0.4,30.6c2.8,19.9,8.4,34.1,16.7,50.5c15.7,31.1,19.1,32.7,21.9,35.2
			c6.3,5.9,15.7,9.8,23,7.6c6.3-1.8,19.9-7.1,27.8-2.9c4.2,2.2,8.1,6.4,12.9,9.2c5.3,3.2,15.8,1.8,19.5,0.4
			c9.7-3.7,15.6-9.1,22.2-17.4c12.6-16,18.9-31.8,34.6-78.1c9.7-28.4,13.5-40.7,7.5-52.6c-5.3-10.5-15-15.3-15-15.3
			c-9.8-4.8-19-2.8-21.7-2.1c-12.9,3-19.8,12.7-22.5,16.6c-5.3,7.4-7,14.4-8.3,19.9c-3.7,15.3-1.8,45.7-2.5,45.7
			c-0.5,0,0.3-23.6-3.8-29.6c-0.6-1-3.9-8.8-13-8.9c-6.5-0.1-11.7,6.6-12.5,7.7c-3,4.2-2.8,8-3.3,17.4c-0.7,13.3-2,22.5-2.1,22.5
			c-0.2,0,0.2-18.2,0.4-36.1c0.1-11.3,0.1-22.6-3.8-36.1C202.1,203.3,200.2,199,196.3,195.4z"/>
		<g>
			<path class="st2" d="M199.9,191.9c-8.9-7.7-22.8-10-34.3-8.9c-11.7,1.1-23.1,6-31.3,14.5c-16.3,16.8-16.2,43.3-12.5,64.8
				c4.4,25.5,16.6,50.3,30.4,72.1c7.5,11.9,20.7,23.1,35.8,19.7c5.4-1.2,10.6-3.5,16.1-4.2c7.4-0.9,11.3,2.4,16.8,6.7
				c9.5,7.3,21.3,7.4,31.9,2.5c16.7-7.7,27.9-25.4,35.4-41.6c10.7-23.1,18.7-47.9,26.3-72.1c2.9-9.3,6-19.3,4.9-29.1
				c-1.2-9.9-7.1-18.6-14.9-24.6c-17.2-13.2-40.9-6.9-53.6,9.2c-14.3,18.2-14.2,41.6-14.1,63.6c0,1.7,0,3.3,0,5c0,0.6-0.2,1.4,0,1.9
				c0,0.1-0.1,0.5,0,0.6c-0.5-0.5,2.2-3.8,1.3-2.9c2.6,0.3,5.2,0.7,7.9,1c1.4,1.9,0.4,2.7,0.5,0.8c0-0.7,0-1.3-0.1-2
				c-0.1-2.2-0.1-4.4-0.2-6.6c-0.2-5.1-0.5-10.4-1.6-15.4c-1.8-8.4-8-16.2-16.9-17.5c-10.4-1.6-20.7,7.3-22.6,17.3
				c-1.3,6.9-1,14.2-1.6,21.2c-0.2,2.9-0.5,5.7-0.8,8.6c-0.1,1.1-0.9,4.8,0,2.7c3,0.4,6.1,0.8,9.1,1.2c0.5,2.1,0.1,0.4,0.1-0.3
				c0.1-1.1,0-2.3,0-3.4c0-3.6,0.1-7.3,0.2-10.9c0.1-9,0.4-18,0.3-27C212.5,223.3,211.3,203.3,199.9,191.9
				c-4.6-4.5-11.6,2.5-7.1,7.1c5.7,5.7,7.4,14.7,8.6,22.4c1.2,7.7,1.3,15.6,1.2,23.4c-0.1,8.5-0.2,17-0.4,25.5
				c-0.1,3.9-0.9,8.8,0.1,12.7c1,3.8,7.4,5.3,9.1,1.2c1.1-2.6,1.1-5.5,1.4-8.2c0.7-6.2,1.1-12.4,1.4-18.6c0.2-4.4-0.1-9.3,2.6-13.1
				c1.9-2.6,6.4-6.3,10.9-4.7c6.4,2.2,7.6,10.4,8.1,16c0.4,4,0.5,8,0.6,12c0.1,2.1-0.4,5.7,0.9,7.5c1.9,2.5,5.4,3.6,7.9,1
				c1.8-1.9,1.6-4.3,1.6-6.7c0-3.8-0.1-7.7-0.1-11.5c0-9.5,0-19.3,2-28.7c3.9-18.4,18.3-38.9,39.9-34.3c8.1,1.8,15.2,7.9,18.8,15.3
				c3,6.2,2.4,13,1,19.6c-2.7,12.1-7.1,23.9-11.1,35.6c-3.9,11.3-7.7,22.5-12.1,33.6c-5.1,13.2-11.1,26.1-20.1,37.1
				c-6.6,8.1-15.2,15.7-26.1,16.2c-6,0.3-9.4-1.7-14.1-5.3c-4.5-3.5-8.7-6.7-14.6-7.3c-5.1-0.5-10.3,0.5-15.2,1.7
				c-4.8,1.3-9.7,3.8-14.8,2.9c-6-1-11.1-4.8-15.2-9.2c-2.8-2.9-5.7-8.2-8.2-12.6c-5.9-10.4-11.6-21.1-16.3-32.1
				c-9.3-21.8-15-48.1-7.7-71.3c3.4-10.8,11-19.2,21.4-23.5c10.7-4.4,29.1-4.9,38.4,3.2C197.7,203.2,204.8,196.1,199.9,191.9z"/>
		</g>
	</g>
</g>
<g id="Слой_3">
	<g>
		<linearGradient id="SVGID_2_" gradientUnits="userSpaceOnUse" x1="324.1323" y1="357.4904" x2="324.1323" y2="187.7242">
			<stop  offset="0" style="stop-color:#AE91B5"/>
			<stop  offset="0.9032" style="stop-color:#E7B8D4"/>
		</linearGradient>
		<path class="st3" d="M291.5,191c-8.8,4.3-12.7,12.2-16.8,20.6c-1.6,3.3-6.3,13.4-8.4,32.8c-2.1,20,0.1,35.5,1.7,45.8
			c2.3,15.2,4.4,28.5,12.6,43.7c5.9,11.1,8.9,16.6,15.1,20.2c19.6,11.2,51.4-7.3,68.1-25.6c4.6-5.1,20.1-22.2,18.9-45
			c-0.3-5.3-0.9-16.3-9.2-23.5c-10.1-8.7-24-5.7-27.3-5c-1.6,0.4-17,3.8-23.5,16.4c-3.2,6-3,11.6-5,11.8c-2.5,0.2-5.2-7.7-6.3-12.6
			c-2.8-11.9-0.1-22,0.4-24c3.5-12.7,8.6-12.4,12.6-24.8c2.1-6.5,5.9-18.4,0-26.5C317.8,186.3,301.9,185.9,291.5,191z"/>
		<g>
			<path class="st2" d="M289,186.7c-14.4,7.7-21.7,26.1-25.1,41.4c-4.8,21.6-3.8,43.5-0.5,65.2c1.8,11.8,4.1,23.5,8.8,34.6
				c3.8,9,8.6,19.8,15.8,26.7c14.4,13.7,36.7,7.3,52-1.1c15.1-8.3,28.7-20.4,37.9-35.1c9.6-15.3,14-36.5,5.6-53.3
				c-7.6-15.3-26-18.7-41.2-14.2c-7.4,2.2-14.7,6.1-19.8,12c-3.4,4-5.6,8.4-7.1,13.4c-0.1,0.5-0.7,1.9-0.7,2.5
				c-0.1,0.3-0.2,0.7-0.3,1c4.7,0.8,6.3,0.2,4.6-1.9c-0.4-2.4-2-5.1-2.6-7.5c-2.5-9.9-1.9-21.8,3.6-30.6c2.6-4.1,5.6-7.7,7.5-12.2
				c2.1-5,3.7-10.3,4.5-15.6c1.7-11.1-1.9-21.8-12.7-26.5C309.6,181.1,298.4,182.3,289,186.7c-5.8,2.7-0.8,11.4,5,8.6
				c6.9-3.2,16.8-4.2,23.4,0.2c7.9,5.3,4.7,16.3,2.4,23.8c-2.5,7.8-8.3,13.5-11.3,21.1c-2.8,7.1-3.9,15.2-3.3,22.8
				c0.5,6.9,2.1,19.5,8.7,23.7c9,5.7,10.5-8.2,13-13.1c5.3-10.2,18.1-15.2,29.1-15c20.4,0.4,24.5,22.3,20.2,38.5
				c-3.7,14-13.2,26-24,35.3c-12.1,10.6-31.5,23.2-48.5,19.2c-7.9-1.9-11.8-7.8-15.6-14.5c-5.6-10.1-10-20.3-12.4-31.6
				c-4.6-21.4-7-43.8-3.9-65.6c2.1-15.1,7.6-37,22.2-44.8C299.8,192.3,294.7,183.7,289,186.7z"/>
		</g>
	</g>
</g>
<g id="Слой_4">
	<g>
		<linearGradient id="SVGID_3_" gradientUnits="userSpaceOnUse" x1="389.634" y1="357.6597" x2="389.634" y2="187.774">
			<stop  offset="0" style="stop-color:#AE91B5"/>
			<stop  offset="0.9032" style="stop-color:#E7B8D4"/>
		</linearGradient>
		<path class="st4" d="M320.1,220.4c-0.7,3.6-0.3,8.1,0.4,16.9c0.6,7.2,1.8,12.8,4,23.6c3.3,15.7,4.6,17.9,6.7,18.7
			c5,1.8,10.5-5.6,13.8-3.6c3,1.8,1.2,8.2,0.9,11.6c-2.3,24.2,0.8,58.3,16.9,67.7c4.1,2.4,11.1,2.8,19,2.1
			c19.2-1.8,29.8-9.6,37.5-15c5.9-4.2,24.5-17.6,34.3-43.6c10.1-26.7,4.6-49.6,2.7-57c-2.9-11.2-7.2-28.2-22.7-40.5
			c-12.9-10.3-26.9-11.9-36.1-12.9C363.6,184.7,323.9,200.1,320.1,220.4z"/>
		<g>
			<path class="st2" d="M315.3,219c-1.4,8.4-0.1,17.4,1.1,25.7c1.4,9.9,3.4,20.1,6.2,29.8c1.3,4.5,3.2,9.1,8.3,10.2
				c3.7,0.7,8.4-0.9,11.3-3.2c0.1-0.1,1.7-0.8,1.7-0.8c-0.7-0.3-1.5-0.6-2.2-0.9c0,0.7,0,1.4,0,2.1c-0.2,2.1-0.6,4.2-0.8,6.4
				c-1.8,18.1-0.9,38.6,6.5,55.5c3.1,7,7.9,13.9,15.2,16.9c9.7,4,22.3,2.2,32.1-0.4c13.7-3.5,26-11.6,36.5-20.8
				c15.1-13.1,26-30.9,30.7-50.3c4.1-17.3,3-34.7-1.5-51.7c-5.1-19.3-14.9-36.9-33.3-46.3c-20.2-10.4-46.1-10.2-67.7-4.8
				C342.7,190.5,319.3,200,315.3,219c-1.3,6.3,8.3,9,9.6,2.7c3.1-14.4,21.8-21.5,34.3-25c17.2-4.8,36.4-5.6,53.7-0.6
				c33,9.6,44.7,49.6,41.1,80.6c-3.5,30.4-24.7,58.3-52.7,70.7c-9,4-19.8,6.1-29.6,5.1c-7.4-0.7-11.6-5.3-14.7-11.7
				c-7.2-14.7-7.5-33.3-6.4-49.3c0.4-6.6,4-19-5.7-20.7c-3.9-0.7-7.6,1.9-10.8,3.7c0.3-0.2-1.6,0.3-1.6,0.2c0.8-0.6,0.4,0.9,1,0.6
				c0,0-0.2-0.1-0.3-0.5c-2.5-9.2-4.7-18.4-6.4-27.7c-1.4-7.9-3.2-17.4-1.9-25.4C325.9,215.4,316.3,212.7,315.3,219z"/>
		</g>
	</g>
</g>
<g id="Слой_5">
	<g>
		<linearGradient id="SVGID_4_" gradientUnits="userSpaceOnUse" x1="484.7762" y1="358.8389" x2="484.7762" y2="188.2073">
			<stop  offset="0" style="stop-color:#AE91B5"/>
			<stop  offset="0.9032" style="stop-color:#E7B8D4"/>
		</linearGradient>
		<path class="st5" d="M436,203.8c-5.3,7.9-12.8,21.1-16.4,38.9c-2.5,11.9-2.2,21.2-2,28.4c0.8,27.5,9.1,46.5,13.6,55.3
			c5.5,10.8,8.4,16.2,14.4,18.4c12.8,4.7,31.5-6.8,37.3-21.2c5.1-12.8,3-30.7,4.4-29.1c1.9,2,0.9,9.2,1.4,17.7
			c0.5,8.1,0.4,30.2,3,35.8c8,17.2,42,12,54.1-3.6c10.8-13.9,4.9-32.3,3.6-36.5c-7.2-22.7-30.7-34.7-41.3-34.5
			c-0.8,0-4.7,0.2-4.8-0.4c-0.1-0.7,6.3-1.8,10.8-3.6c13.6-5.6,18.7-22.5,19.2-24.4c5.7-20-6.9-36.5-8.4-38.5
			c-11-13.9-26.8-16.5-34.1-17.6C463.2,184.6,441.5,199.7,436,203.8z"/>
		<g>
			<path class="st2" d="M431.7,201.3c-20.5,30.7-23.8,69.4-13.9,104.5c1.8,6.5,4.2,12.8,7,19c3,6.5,6.2,13.5,10.8,18.9
				c10.4,12.2,28.4,6.8,39.3-1.8c7.3-5.8,12.4-13.6,14.5-22.7c1.2-4.9,1.7-9.9,1.9-14.9c0.1-1.9,0.2-3.7,0.2-5.6
				c0-1.2,0.8-3.5-0.3-1.7c-1,0.8-2,1.5-3,2.3c0,0,0.1,0,0.1,0c-1.3-0.2-2.6-0.3-3.9-0.5c-2.8-1.9-0.8-1.4-1.2-0.2
				c-0.2,0.4,0.1,2.2,0.1,2.5c0.1,2.6,0,5.2,0,7.7c0.1,3.9,0.3,7.9,0.4,11.8c0.2,8.2,0.3,16.5,1.7,24.6
				c2.6,14.7,18.2,19.8,31.5,18.5c16.4-1.6,33-10.5,38.2-27.1c4.6-14.6,0.1-32.5-8.7-44.7c-5.6-7.7-13.1-14.2-21.6-18.5
				c-3.3-1.7-6.8-3.1-10.4-4c-1.7-0.4-3.5-0.7-5.2-0.8c-1-0.1-4.2-0.2-3.6,0.2c0.6,2.3,1.2,4.6,1.8,6.8c-2,3.3-2.4,1.4-0.9,1.3
				c0.6,0,1.6-0.4,2.2-0.6c1.8-0.5,3.5-0.9,5.3-1.6c3.7-1.3,7.1-3.2,10.1-5.8c4.8-4,8.4-9.4,11-15.1c5.5-11.9,5.9-25.1,0.9-37.4
				c-10.3-25.7-38.6-36.3-64.8-32.8c-13.7,1.8-26.9,7.4-38,15.7c-5.1,3.8-0.1,12.5,5,8.6c18.4-13.6,41.8-18.8,63.8-11.3
				c6.5,2.2,12.3,5.9,17,10.9c0.7,0.8,1.4,1.6,2.1,2.5c0,0-0.7-0.9-0.3-0.4c0.4,0.5,0.7,1,1.1,1.5c1.2,1.8,2.3,3.7,3.3,5.6
				c5,9.9,5.8,21.4,1.4,31.6c-2.3,5.4-5.8,10.8-10.7,14.2c-3.2,2.2-6.8,3.2-10.5,4.2c-2.5,0.7-5.3,1.3-6.7,3.7
				c-1.5,2.5-0.4,5.3,1.8,6.8c2.2,1.5,5.2,1,7.7,1.1c2.1,0.1,4.1,0.5,6.2,1.2c6.2,2,11.9,5.6,16.7,9.9c9.7,8.7,15.6,21.1,15.8,34.2
				c0.2,15.9-10.9,25.7-25.6,29c-9.6,2.2-24.2,1.6-26.2-10.4c-2.3-13.5-1.5-27.8-1.8-41.4c-0.1-4.4-2.5-15.8-9.5-10.4
				c-3.8,2.9-2.4,10.9-2.7,15.1c-0.5,8.1-1.9,16.4-7.1,22.9c-4.7,6-11.9,11-19.6,12.2c-7.1,1.1-11.2-2.3-14.6-8.2
				c-3.2-5.4-6-11.1-8.4-16.9c-14.3-35.4-12.8-77.2,8.6-109.3C443.9,201,435.2,196,431.7,201.3z"/>
		</g>
	</g>
</g>
<g id="Слой_6">
	<g>
		<linearGradient id="SVGID_5_" gradientUnits="userSpaceOnUse" x1="602.7055" y1="356.9467" x2="602.7055" y2="187.774">
			<stop  offset="0" style="stop-color:#AE91B5"/>
			<stop  offset="0.9032" style="stop-color:#E7B8D4"/>
		</linearGradient>
		<path class="st6" d="M579.6,349.5c-5,4.6-10.8,5.6-16.9,6.6c-4.5,0.8-13.5,2.1-24.3-1.6c-10.1-3.5-16.1-9.8-17.3-11.1
			c-7.2-7.8-9.5-16.2-10.7-22.6c-1-5.5-2.3-12.3-0.6-28.2c2.1-19.3,9-34.1,16.6-50.4c14.1-30.3,22.1-35.5,24.9-37.8
			c6-5.1,13-9.2,20.5-8.3c6,0.7,16.2,4.6,22.7,10.6c3.6,3.3,3.1-2.4,3.7-5.9c1.3-7.1,1.6-10.6,6.3-12.4c5.7-2.2,20.9,1.8,25.3,4.2
			c10.6,6,19.4,14.3,25.5,23.8c10.7,16.7,15.1,25.3,30.6,70.1c9.5,27.5,13.3,39.4,7.4,51c-5.2,10.2-14.8,14.8-14.8,14.8
			c-9.7,4.6-18.7,2.7-21.4,2.1c-12.7-2.9-19.5-12.3-22.2-16c-5.2-7.1-7.8-13.8-8.2-19.3c-1.2-15.1,7.6-48.3,2.4-37.3
			c-0.2,0.4-4.7,15.9-8.6,21.7c-0.6,0.9-5.9,8.3-14,7.8c-6.4-0.4-10.3-5.5-11.1-6.6c-2.9-4-3.4-7.5-3.8-16.5
			c-0.5-12.6,5.7-28.2-5.3-26.7c-0.2,0,2.2,22.7,4.2,39.6c1.3,10.8,0.1,21.9-3.7,34.9C585.2,341.9,583.3,346.1,579.6,349.5z"/>
		<g>
			<path class="st2" d="M576.1,346c-5,4.2-12.3,5.3-18.6,5.8c-7.7,0.6-15.6-0.7-22.5-4.3c-11.3-6-17.4-16.3-19.7-28.8
				c-5.3-29,7.1-57.7,20-82.9c4.3-8.4,8.9-17.3,15.6-24.1c6-6.1,14.2-12.3,23.2-10.2c3.3,0.8,6.4,2,9.4,3.5c3.4,1.8,6,4.3,9.2,6.3
				c5.6,3.5,9.7-0.8,10.4-6.3c0.5-3.8,0.1-11.4,4.8-12.1c5.2-0.8,11.5,1.2,16.4,2.8c19.3,6.5,31.5,28.3,39.6,45.9
				c4.7,10.2,8.4,20.7,12.2,31.2c5.2,14.6,11.2,29.3,14.4,44.5c2.2,10.4,0.2,19.3-8,26.6c-7.5,6.7-18.1,8.2-27.4,4.7
				c-10.9-4.1-20.6-16.4-22.7-27.7c-1.9-10,1.1-21.4,2.6-31.3c0.5-3.1,1.4-6.5,1.1-9.6c-0.4-4.5-5.5-7.1-9-3.7c-2.1,2-2.8,5.3-3.6,8
				c-1.6,5.1-3.3,10.5-5.9,15.1c-1.7,3-5.3,7-9.9,6.9c-4.9-0.1-8.2-4.1-9.5-7.9c-1.9-5.6-1.4-12.5-0.8-18.3
				c0.5-5.4,1.9-11.4,0.3-16.7c-1.5-5-5.9-7.5-10.9-7c-2,0.2-4.5,1.4-4.8,3.7c-0.6,3.7,0.4,7.9,0.8,11.6c0.8,8,1.7,16.1,2.7,24.1
				c1,8.6,1.6,16.9,0.2,25.5C583.9,329.6,582.3,339.9,576.1,346c-4.6,4.5,2.5,11.6,7.1,7.1c6.3-6.2,8.7-14.7,10.6-23
				c2.1-9.2,3-18.8,2.1-28.2c-0.9-8.5-2-17-2.9-25.5c-0.4-3.3-0.7-6.6-1-9.9c-0.1-1-0.1-2-0.3-3c-0.1-0.7,0.1-2.8-0.3-0.5
				c-1.6,1.2-3.2,2.4-4.8,3.7c1.7-0.1,1.6-0.7,1.6,1.5c0,2.8-0.2,5.5-0.5,8.2c-0.6,6.1-1,12-0.4,18.2c0.9,9.4,5.7,18.5,15.4,21.3
				c9.9,2.8,19.4-3.6,23.8-12.1c2.4-4.5,4.1-9.4,5.7-14.3c0.6-1.8,1.1-3.6,1.7-5.4c0.1-0.4,0.1-1.1,0-0.2c0.2-1.6,2.2-1.1-0.7,0.2
				c-1.3,0.2-2.6,0.3-3.9,0.5c0,0,0.1,0,0.1,0c-1-0.8-2-1.5-3-2.3c-1.6-2.3-0.2-2.4-0.6-0.8c-0.1,0.6-0.1,1.2-0.2,1.8
				c-0.3,2.4-0.8,4.9-1.1,7.3c-0.9,5.9-1.9,11.9-2.4,17.9c-0.6,6-0.7,12,1,17.8c2,6.7,5.8,12.7,10.1,18.2
				c16.2,20.4,46.9,21.8,62.2-0.2c6.6-9.5,6.6-20.2,4.1-31.1c-3.8-16.5-10.3-32.7-16.1-48.6c-6.9-18.9-14.4-37.9-26.4-54.1
				c-9.7-13.1-23-23.4-39.2-26.4c-6.3-1.1-14.3-2.2-19.4,2.7c-2.4,2.3-3.5,5.5-4.2,8.7c-0.4,1.8-0.7,3.6-0.9,5.4
				c-0.1,0.7-0.3,1.6-0.3,2.4c0,0.8-0.7,1.9,0.2,1.2c1.2-0.5,2.4-1,3.5-1.5c0.5,0.2,0.9,0.4,1.4,0.5c-0.7-0.7-1.5-1.3-2.3-1.9
				c-1.1-0.9-2.3-1.8-3.5-2.5c-2.1-1.4-4.4-2.6-6.7-3.6c-4.3-1.9-8.9-3.6-13.7-4c-9.7-0.8-17.9,4.6-25,10.6
				c-9.7,8.2-16,20.2-21.5,31.4c-10.9,22-20.2,44.3-21.2,69.1c-0.7,16.6,2.8,35.1,15.6,46.8c8.7,7.9,20,12.5,31.7,12.9
				c10.8,0.5,23.2-1.8,31.6-8.9C588,348.9,580.9,341.8,576.1,346z"/>
		</g>
	</g>
</g>
<g id="Слой_7">
	<g>
		<linearGradient id="SVGID_6_" gradientUnits="userSpaceOnUse" x1="713.5313" y1="357.8211" x2="713.5313" y2="187.3935">
			<stop  offset="0" style="stop-color:#AE91B5"/>
			<stop  offset="0.9032" style="stop-color:#E7B8D4"/>
		</linearGradient>
		<path class="st7" d="M663.7,191.5c-6.3,5.1-7.2,13.4-7.8,19.4c-1.4,14.2,4.4,18.3,3.9,30.7c-0.3,8-2.9,10.1-10.4,26.8
			c-9.2,20.5-12.4,31.5-14.3,42.1c-1.8,9.6-0.7,32.7,16.5,42.5c13.4,7.6,28.1,0.2,31-1.2c16.1-7.8,22.1-23.1,25-30.7
			c7.5-19,3.8-37.2,3.5-37.8c0,0-0.1-0.1,0-0.2c0.2-0.5,4.9-0.4,6.9,7.3c3,11.2,2.5,15.6-1.4,24.5c-11.2,26,2.3,34.8,7.4,38.6
			c14,10.5,35.2-0.8,37.6-2.2c17-9.4,23-26.9,26.3-36.7c6.9-20.3,4.4-37.6,2.2-53.1c-3.3-22.6-10.6-37.3-15.5-47.1
			c-11-21.7-18.4-24-21.2-24.6c-8-1.8-15.2,0.2-21.5,6.6c-3.1,3.1-6.2,5.7-7.1,11.4c-2.7,17.1,1.5,25.9,5.6,36.5
			c3.9,10-7.3-7.5-9.3-11c-3.9-6.6-4.9-11.1-6.5-18.6c-2.8-13.2-16.2-22.8-27.6-25.9C684,188.1,672,184.8,663.7,191.5z"/>
		<g>
			<path class="st2" d="M660.2,188c-8.5,7.6-10.4,21.2-9.2,32c1,8.7,5.7,17.2,3.1,26.2c-1,3.4-2.7,6.5-4.2,9.6
				c-3,6.1-5.8,12.3-8.4,18.6c-4.1,9.8-7.9,19.7-10.2,30.1c-3.7,16.8-1.4,37.3,12.6,49.1c17.8,15.1,44.3,6,57.6-10.6
				c13.5-16.9,18.3-40.1,14.5-61.1c-0.4,1.6-0.9,3.2-1.3,4.9c-3.1,3-3.2,0.3-3,1.6c0.1,1.3,1.7,3.8,2.1,5.2c0.9,3.6,1.7,7.3,1.1,11
				c-1.1,7.9-5.9,14.9-7,22.9c-1.5,10.6,1.7,20.6,10,27.5c19.9,16.4,49.3,4.3,63.1-14.4c18.9-25.6,18.6-59.5,12.4-89.3
				c-2.9-13.8-8-26.8-14.5-39.3c-4.8-9.3-11.2-21.7-21.5-26c-13.4-5.6-30,3.1-35.9,15.7c-3.7,7.9-3.2,18.6-1.6,27
				c0.7,3.7,1.9,7.2,3.2,10.7c0.6,1.7,1.3,3.4,2,5.2c0.3,0.6,0.5,1.4,0.8,2c0.7,1.4-0.4,2,0.4-0.5c0.8-1,1.5-2,2.3-3
				c0,0-0.1,0-0.1,0.1c1.3-0.2,2.6-0.3,3.9-0.5c2.7,0.9,1,0.3-0.1-1.2c-1-1.3-1.9-2.7-2.8-4c-1.7-2.6-3.5-5.2-5-8
				c-2.8-5-3.8-10.4-5.1-15.9c-1.2-5.2-3.7-9.8-7-13.9c-10.9-13.5-35.6-24-51.3-12.4c-5.1,3.8-0.1,12.5,5,8.6
				c10-7.4,25.1-1.8,33.8,5.4c6.3,5.2,8.9,11.2,10.7,19c1.4,6.2,3.7,11.9,7.1,17.4c2.5,4,11.1,20.9,17.4,12.9
				c3-3.9-0.9-9.9-2.3-13.7c-2.4-6.3-3.9-12.6-3.8-19.3c0.1-4.1,0.1-9,2.2-12.6c1.8-3,5.3-6.2,8.2-8c4.2-2.7,9.8-3.5,14.5-1.6
				c-1-0.4,1.7,1,2.2,1.4c1.6,1.2,2.9,2.7,4.2,4.2c4.5,5.3,7.8,11.7,11,17.9c6.2,12.3,10.8,25.1,13.3,38.7c2.9,16,4.7,32.7,0.9,48.7
				c-3,12.2-8,25.2-17.1,34.2c-7.3,7.2-18.2,12.2-28.5,12.6c-8.5,0.3-17.5-4.5-20.9-12.5c-5.6-13.1,6-25.2,6.2-38.1
				c0.1-6.4-1.3-15.3-5.6-20.3c-2.6-3-8.1-6-11.7-2.5c-2.6,2.6-1,6.2-0.7,9.3c0.7,7.3,0.3,14.8-1.4,21.9
				c-2.7,11.7-8.4,24.1-17.8,31.9c-10.2,8.4-26.5,12.7-37.4,3.5c-18.4-15.5-9.6-43.3-2.3-61.8c3.1-7.9,6.6-15.7,10.3-23.4
				c2-4.1,4.3-8.2,5.4-12.7c3-11.9-3.5-22.2-3.2-33.8c0.2-6.9,1.1-14.5,6.5-19.2C672.1,190.8,665,183.7,660.2,188z"/>
		</g>
	</g>
</g>
<g id="Слой_8">
	<g>
		<linearGradient id="SVGID_7_" gradientUnits="userSpaceOnUse" x1="822.8452" y1="357.936" x2="822.8452" y2="187.2786">
			<stop  offset="0" style="stop-color:#AE91B5"/>
			<stop  offset="0.9032" style="stop-color:#E7B8D4"/>
		</linearGradient>
		<path class="st8" d="M752.9,220c-0.7,3.7-0.3,8.1,0.4,17c0.6,7.3,1.8,12.9,4,23.7c3.3,15.8,4.6,18,6.7,18.8
			c5,1.8,10.5-5.6,13.9-3.6c3,1.9,0,10-0.4,12.1c-4.5,22.1,2.1,58.2,18.4,67.6c4.2,2.4,8.1,2.3,16.1,2.2c19.1-0.3,33-9.8,40.7-15.2
			c6-4.2,24.6-17.7,34.5-43.9c10.1-26.8,4.6-49.9,2.7-57.3c-2.9-11.3-7.2-28.3-22.8-40.7c-13-10.3-27-12-36.3-13
			C796.7,184.2,756.7,199.6,752.9,220z"/>
		<g>
			<path class="st2" d="M748.1,218.7c-1.4,8.8,0,18.3,1.3,27c1.5,9.8,3.3,20.1,6.3,29.6c1.5,4.7,3.9,9.2,9.4,9.5
				c2.3,0.1,4.3-0.5,6.3-1.4c0.6-0.3,5.3-2.3,5.4-2.8c-0.4-0.3-0.9-0.6-1.3-0.9c-1.1-1.3-1.6-1.3-1.3,0.1c-0.3,0.5-0.4,2.3-0.5,2.9
				c-0.4,1.7-0.9,3.3-1.3,5.1c-3.4,17.4-1,37.3,6.1,53.6c3.1,7.2,7.8,14.6,14.8,18.6c8.1,4.6,19.5,3.4,28.3,2
				c15.6-2.5,29.7-11.1,41.6-21.2c15.1-12.6,26.2-29.9,31.4-48.8c4.8-17.4,4.3-35.5-0.2-52.8c-5.1-20-14.6-38.5-33.6-48.4
				c-20.2-10.5-46.2-10.4-67.8-5.1C776.1,189.8,752.2,199.4,748.1,218.7c-1.3,6.3,8.3,9,9.6,2.7c3.1-14.7,22.4-21.8,35-25.3
				c17.3-4.8,36.8-5.5,54.1-0.2c19.5,5.9,31.1,21.8,36.5,40.8c4,14.2,6,28.6,3.7,43.3c-4.9,30.6-27.9,59.6-57.7,69.8
				c-4.5,1.6-9.2,2.6-14,3c-4.5,0.3-9.9,0.8-14.3-0.3c-6.3-1.7-10.3-8.4-12.9-13.9c-6.7-14.1-8.9-32.2-6.2-47.5
				c1.1-6.1,5.6-16.7-2.7-19.9c-4-1.5-7.3,0.8-10.7,2.5c-0.7,0.4-2,0.7-2.6,1.2c-0.6,0.4-0.1,0.1-0.1,0.1c0.8,0,0.6,1.2,0.2-0.2
				c-2.5-8-4.5-17.7-6.2-26.4c-0.9-4.9-1.5-9.8-1.9-14.7c-0.3-3.9-1-8.2-0.3-12.1C758.8,215.1,749.1,212.4,748.1,218.7z"/>
		</g>
	</g>
</g>
<g id="Слой_9__x28_копия_x29_">
	<path class="st0" d="M850.5,295.1c-0.3-0.3-3-3.5-6.8-3c-3.7,0.4-6.1,4-6.8,6.8c-0.2,0.9-0.4,2.4,2.3,9.9c2.2,5.9,3.3,8.9,4.6,9.1
		c3,0.5,7.2-6.2,8.4-12.2C852.5,303.2,853.4,298.5,850.5,295.1z"/>
	<path class="st0" d="M507.1,228.1c-0.3-0.3-3-3.5-6.8-3c-3.7,0.4-6.1,4-6.8,6.8c-0.2,0.9-0.4,2.4,2.3,9.9c2.2,5.9,3.3,8.9,4.6,9.1
		c3,0.5,7.2-6.2,8.4-12.2C509.1,236.2,510,231.5,507.1,228.1z"/>
	<path class="st0" d="M411,295.1c-0.3-0.3-3-3.5-6.8-3c-3.7,0.4-6.1,4-6.8,6.8c-0.2,0.9-0.4,2.4,2.3,9.9c2.2,5.9,3.3,8.9,4.6,9.1
		c3,0.5,7.2-6.2,8.4-12.2C413,303.2,413.9,298.5,411,295.1z"/>
</g>
</svg>
